<svg id="visual" viewBox="0 0 900 600" width="900" height="600" xmlns="http://www.w3.org/2000/svg" xmlns:xlink="http://www.w3.org/1999/xlink" version="1.1"><rect x="0" y="0" width="900" height="600" fill="#13568c"></rect><defs><linearGradient id="grad1_0" x1="33.3%" y1="0%" x2="100%" y2="100%"><stop offset="20%" stop-color="#3cd4fa" stop-opacity="1"></stop><stop offset="80%" stop-color="#3cd4fa" stop-opacity="1"></stop></linearGradient></defs><defs><linearGradient id="grad1_1" x1="33.3%" y1="0%" x2="100%" y2="100%"><stop offset="20%" stop-color="#3cd4fa" stop-opacity="1"></stop><stop offset="80%" stop-color="#2cbeea" stop-opacity="1"></stop></linearGradient></defs><defs><linearGradient id="grad1_2" x1="33.3%" y1="0%" x2="100%" y2="100%"><stop offset="20%" stop-color="#1fa8d9" stop-opacity="1"></stop><stop offset="80%" stop-color="#2cbeea" stop-opacity="1"></stop></linearGradient></defs><defs><linearGradient id="grad1_3" x1="33.3%" y1="0%" x2="100%" y2="100%"><stop offset="20%" stop-color="#1fa8d9" stop-opacity="1"></stop><stop offset="80%" stop-color="#1693c6" stop-opacity="1"></stop></linearGradient></defs><defs><linearGradient id="grad1_4" x1="33.3%" y1="0%" x2="100%" y2="100%"><stop offset="20%" stop-color="#127eb4" stop-opacity="1"></stop><stop offset="80%" stop-color="#1693c6" stop-opacity="1"></stop></linearGradient></defs><defs><linearGradient id="grad1_5" x1="33.3%" y1="0%" x2="100%" y2="100%"><stop offset="20%" stop-color="#127eb4" stop-opacity="1"></stop><stop offset="80%" stop-color="#126aa0" stop-opacity="1"></stop></linearGradient></defs><defs><linearGradient id="grad1_6" x1="33.3%" y1="0%" x2="100%" y2="100%"><stop offset="20%" stop-color="#13568c" stop-opacity="1"></stop><stop offset="80%" stop-color="#126aa0" stop-opacity="1"></stop></linearGradient></defs><defs><linearGradient id="grad2_0" x1="0%" y1="0%" x2="66.7%" y2="100%"><stop offset="20%" stop-color="#3cd4fa" stop-opacity="1"></stop><stop offset="80%" stop-color="#3cd4fa" stop-opacity="1"></stop></linearGradient></defs><defs><linearGradient id="grad2_1" x1="0%" y1="0%" x2="66.7%" y2="100%"><stop offset="20%" stop-color="#2cbeea" stop-opacity="1"></stop><stop offset="80%" stop-color="#3cd4fa" stop-opacity="1"></stop></linearGradient></defs><defs><linearGradient id="grad2_2" x1="0%" y1="0%" x2="66.7%" y2="100%"><stop offset="20%" stop-color="#2cbeea" stop-opacity="1"></stop><stop offset="80%" stop-color="#1fa8d9" stop-opacity="1"></stop></linearGradient></defs><defs><linearGradient id="grad2_3" x1="0%" y1="0%" x2="66.7%" y2="100%"><stop offset="20%" stop-color="#1693c6" stop-opacity="1"></stop><stop offset="80%" stop-color="#1fa8d9" stop-opacity="1"></stop></linearGradient></defs><defs><linearGradient id="grad2_4" x1="0%" y1="0%" x2="66.7%" y2="100%"><stop offset="20%" stop-color="#1693c6" stop-opacity="1"></stop><stop offset="80%" stop-color="#127eb4" stop-opacity="1"></stop></linearGradient></defs><defs><linearGradient id="grad2_5" x1="0%" y1="0%" x2="66.7%" y2="100%"><stop offset="20%" stop-color="#126aa0" stop-opacity="1"></stop><stop offset="80%" stop-color="#127eb4" stop-opacity="1"></stop></linearGradient></defs><defs><linearGradient id="grad2_6" x1="0%" y1="0%" x2="66.7%" y2="100%"><stop offset="20%" stop-color="#126aa0" stop-opacity="1"></stop><stop offset="80%" stop-color="#13568c" stop-opacity="1"></stop></linearGradient></defs><g transform="translate(900, 0)"><path d="M0 378.6C-52.8 376.3 -105.6 374 -144.9 349.8C-184.2 325.5 -210 279.2 -242.5 242.5C-275.1 205.9 -314.3 178.9 -338.1 140.1C-361.9 101.2 -370.3 50.6 -378.6 0L0 0Z" fill="#126096"></path><path d="M0 324.5C-45.2 322.6 -90.5 320.6 -124.2 299.8C-157.9 279 -180 239.3 -207.9 207.9C-235.8 176.5 -269.4 153.3 -289.8 120.1C-310.2 86.8 -317.4 43.4 -324.5 0L0 0Z" fill="#1274aa"></path><path d="M0 270.4C-37.7 268.8 -75.4 267.2 -103.5 249.8C-131.6 232.5 -150 199.4 -173.2 173.2C-196.5 147.1 -224.5 127.8 -241.5 100C-258.5 72.3 -264.5 36.2 -270.4 0L0 0Z" fill="#1488bd"></path><path d="M0 216.3C-30.2 215 -60.3 213.7 -82.8 199.9C-105.2 186 -120 159.5 -138.6 138.6C-157.2 117.6 -179.6 102.2 -193.2 80C-206.8 57.9 -211.6 28.9 -216.3 0L0 0Z" fill="#1a9ed0"></path><path d="M0 162.2C-22.6 161.3 -45.2 160.3 -62.1 149.9C-78.9 139.5 -90 119.7 -103.9 103.9C-117.9 88.2 -134.7 76.7 -144.9 60C-155.1 43.4 -158.7 21.7 -162.2 0L0 0Z" fill="#25b3e1"></path><path d="M0 108.2C-15.1 107.5 -30.2 106.9 -41.4 99.9C-52.6 93 -60 79.8 -69.3 69.3C-78.6 58.8 -89.8 51.1 -96.6 40C-103.4 28.9 -105.8 14.5 -108.2 0L0 0Z" fill="#34c9f2"></path><path d="M0 54.1C-7.5 53.8 -15.1 53.4 -20.7 50C-26.3 46.5 -30 39.9 -34.6 34.6C-39.3 29.4 -44.9 25.6 -48.3 20C-51.7 14.5 -52.9 7.2 -54.1 0L0 0Z" fill="#3cd4fa"></path></g><g transform="translate(0, 600)"><path d="M0 -378.6C43.5 -355.9 87 -333.1 130.5 -315C174 -296.9 217.6 -283.4 256.7 -256.7C295.7 -229.9 330.2 -189.9 349.8 -144.9C369.3 -99.9 374 -49.9 378.6 0L0 0Z" fill="#126096"></path><path d="M0 -324.5C37.3 -305 74.5 -285.6 111.9 -270C149.2 -254.5 186.5 -243 220 -220C253.5 -197.1 283 -162.7 299.8 -124.2C316.6 -85.6 320.5 -42.8 324.5 0L0 0Z" fill="#1274aa"></path><path d="M0 -270.4C31.1 -254.2 62.1 -238 93.2 -225C124.3 -212.1 155.5 -202.5 183.3 -183.3C211.2 -164.2 235.9 -135.6 249.8 -103.5C263.8 -71.3 267.1 -35.7 270.4 0L0 0Z" fill="#1488bd"></path><path d="M0 -216.3C24.8 -203.4 49.7 -190.4 74.6 -180C99.4 -169.7 124.4 -162 146.7 -146.7C169 -131.4 188.7 -108.5 199.9 -82.8C211 -57.1 213.7 -28.5 216.3 0L0 0Z" fill="#1a9ed0"></path><path d="M0 -162.2C18.6 -152.5 37.3 -142.8 55.9 -135C74.6 -127.3 93.3 -121.5 110 -110C126.7 -98.5 141.5 -81.4 149.9 -62.1C158.3 -42.8 160.3 -21.4 162.2 0L0 0Z" fill="#25b3e1"></path><path d="M0 -108.2C12.4 -101.7 24.8 -95.2 37.3 -90C49.7 -84.8 62.2 -81 73.3 -73.3C84.5 -65.7 94.3 -54.2 99.9 -41.4C105.5 -28.5 106.8 -14.3 108.2 0L0 0Z" fill="#34c9f2"></path><path d="M0 -54.1C6.2 -50.8 12.4 -47.6 18.6 -45C24.9 -42.4 31.1 -40.5 36.7 -36.7C42.2 -32.8 47.2 -27.1 50 -20.7C52.8 -14.3 53.4 -7.1 54.1 0L0 0Z" fill="#3cd4fa"></path></g></svg>